<svg xmlns="http://www.w3.org/2000/svg" width="205" height="38" viewBox="0 0 205 38" fill="none"><path d="M11.372 37.4744C9.57538 37.5185 7.79025 37.1771 6.13702 36.4731C4.71324 35.8403 3.47297 34.8577 2.53189 33.6169C1.60461 32.3565 0.942661 30.9214 0.585982 29.3983C0.185347 27.7346 -0.0111691 26.0284 0.000748283 24.3173C-0.0150135 22.6769 0.218311 21.0437 0.692786 19.4732C1.12965 18.0375 1.86003 16.708 2.8377 15.5689C3.82595 14.4439 5.06758 13.5697 6.46033 13.0182C9.18199 12.0729 12.1082 11.877 14.9317 12.451C16.15 12.6335 17.3467 12.9391 18.5032 13.3631C18.7078 13.4401 18.8846 13.5766 19.0109 13.7549L19.2479 14.0896C19.3788 14.2742 19.4489 14.4949 19.4483 14.7211V16.1901C19.4578 16.3758 19.4289 16.5615 19.3636 16.7356C19.2982 16.9096 19.1977 17.0684 19.0683 17.2021C18.9389 17.3357 18.7834 17.4414 18.6114 17.5125C18.4394 17.5835 18.2547 17.6186 18.0686 17.6153C17.6451 17.5869 17.2297 17.485 16.8411 17.3142C16.4021 17.1563 15.8813 16.978 15.2726 16.7748C14.6404 16.5696 13.9977 16.3983 13.3472 16.2617C12.6965 16.1225 12.033 16.0514 11.3676 16.0498C10.2602 16.0186 9.15919 16.227 8.13999 16.6608C7.28545 17.042 6.52746 17.6099 5.92194 18.3228C5.3026 19.0745 4.84978 19.9488 4.59341 20.8881C4.28237 22.0049 4.12876 23.1596 4.13694 24.3188C4.13344 25.5492 4.27487 26.7757 4.55831 27.9731C4.79873 29.0219 5.23344 30.0164 5.84 30.9053C6.41153 31.7162 7.16254 32.3845 8.03466 32.8582C9.06726 33.3684 10.2105 33.6145 11.3617 33.5745C12.1599 33.5755 12.9552 33.4772 13.7291 33.2821C14.4747 33.099 15.2078 32.868 15.9237 32.5907C16.4559 32.3872 16.9774 32.1569 17.4863 31.9008C18.1828 31.5412 18.3642 31.4447 18.6817 31.4447C18.8329 31.4454 18.9823 31.4772 19.1206 31.5383C19.4713 31.6974 19.7608 31.966 19.9455 32.3037C20.1302 32.6414 20.2002 33.0299 20.1448 33.4108C20.117 33.7718 20.1038 34.0729 20.1038 34.2878C20.1037 34.4787 20.0533 34.6663 19.9575 34.8316L19.7673 35.1648C19.6678 35.3355 19.5243 35.4763 19.3518 35.5726C18.7495 35.9046 18.12 36.1848 17.4702 36.4102C16.7874 36.6476 16.0906 36.8429 15.3838 36.9949C14.7254 37.1411 14.0495 37.2507 13.3179 37.3428C12.6667 37.4258 12.0109 37.4688 11.3544 37.4714L11.372 37.4744Z" fill="#151515"></path><path d="M32.8164 37.4744C31.0667 37.508 29.3291 37.1769 27.7146 36.5023C26.2877 35.8881 25.0175 34.9609 23.9983 33.7893C22.9859 32.6 22.2378 31.2094 21.8036 29.7096C21.3322 28.0955 21.1001 26.4211 21.1145 24.7398C21.0952 23.029 21.3094 21.3235 21.751 19.6705C22.1479 18.1916 22.8651 16.8178 23.8519 15.6464C24.8561 14.4903 26.1265 13.5954 27.5536 13.0386C30.9279 11.8603 34.6025 11.8603 37.9768 13.0386C39.4016 13.594 40.6671 14.4922 41.6609 15.6537C42.6349 16.838 43.3411 18.2187 43.7312 19.7012C44.1702 21.3442 44.3839 23.0393 44.3662 24.7398C44.3798 26.421 44.1481 28.0952 43.6785 29.7096C43.2493 31.1947 42.5242 32.5779 41.5468 33.7762C40.5532 34.9523 39.3015 35.8837 37.889 36.4979C36.2823 37.1749 34.5511 37.5071 32.8076 37.4729L32.8164 37.4744ZM32.8164 16.0483C31.6253 16.0168 30.4406 16.2344 29.3386 16.6871C28.4522 17.0739 27.6711 17.6668 27.0606 18.4163C26.4317 19.2229 25.9737 20.149 25.7145 21.1381C25.4004 22.3131 25.2459 23.525 25.2551 24.7412C25.249 25.924 25.4105 27.1016 25.735 28.2391C26.0186 29.2462 26.4941 30.1892 27.1352 31.0164C27.7604 31.8004 28.5519 32.4359 29.4527 32.8772C30.4984 33.3345 31.6274 33.5706 32.7689 33.5706C33.9103 33.5706 35.0394 33.3345 36.085 32.8772C36.9785 32.4426 37.7607 31.8096 38.3718 31.0267C39.0003 30.1975 39.4614 29.2543 39.7296 28.2494C40.0394 27.1059 40.194 25.9259 40.189 24.7412C40.1892 24.6389 40.2034 24.5371 40.2314 24.4387C40.2184 23.3297 40.071 22.2263 39.7925 21.1527C39.5426 20.166 39.0978 19.2392 38.4845 18.4266C37.897 17.6715 37.1321 17.073 36.2576 16.6842C35.1672 16.2323 33.9935 16.0161 32.8135 16.0498L32.8164 16.0483Z" fill="#151515"></path><path d="M53.1655 37.4743C52.09 37.4638 51.0168 37.371 49.9555 37.1966C48.8615 37.0367 47.7897 36.7507 46.7615 36.3444C46.5968 36.2767 46.4512 36.1698 46.3372 36.0331L46.0987 35.7495C45.9352 35.5527 45.8456 35.3051 45.8456 35.0493V33.4809C45.8357 33.2891 45.8655 33.0973 45.933 32.9174C46.0005 32.7376 46.1043 32.5735 46.2379 32.4355C46.3716 32.2974 46.5322 32.1883 46.7099 32.1149C46.8876 32.0416 47.0784 32.0055 47.2707 32.0089C47.4005 32.0094 47.5293 32.0326 47.6511 32.0776C48.2758 32.31 48.8215 32.5293 49.2502 32.7295C49.5941 32.8889 49.9642 33.0409 50.3798 33.1944C50.7458 33.3221 51.123 33.4156 51.5064 33.4736C52.0881 33.5531 52.675 33.5878 53.2621 33.5774C53.8407 33.5754 54.4174 33.5122 54.9827 33.3888C55.5033 33.2818 56.0033 33.0918 56.4634 32.826C56.8453 32.6074 57.1673 32.2981 57.4012 31.9256C57.6385 31.5194 57.7538 31.0536 57.7333 30.5837C57.7699 29.964 57.5595 29.3549 57.1481 28.8896C56.5984 28.3294 55.9584 27.8654 55.2548 27.517C54.3602 27.0669 53.4431 26.663 52.5071 26.3067C51.4367 25.8988 50.4123 25.3795 49.4507 24.7573C48.4754 24.1207 47.6311 23.3035 46.9634 22.3498C46.2068 21.1844 45.831 19.813 45.888 18.4251C45.8622 17.3826 46.1196 16.3527 46.6327 15.4446C47.1034 14.651 47.7501 13.9758 48.5231 13.4713C49.2965 12.9772 50.1531 12.6271 51.0513 12.4378C52.979 12.0856 54.952 12.0569 56.8891 12.353C57.9566 12.482 59.0114 12.7006 60.0421 13.0064C60.2431 13.0673 60.4223 13.1845 60.5586 13.3441L60.8424 13.6774C61.0118 13.8742 61.1047 14.1253 61.1044 14.3848V15.7633C61.1004 16.0151 61.0372 16.2624 60.92 16.4854C60.8204 16.7063 60.6596 16.8941 60.4566 17.0267C60.2536 17.1593 60.0169 17.2312 59.7744 17.2338C59.3513 17.2132 58.9332 17.1335 58.5322 16.997C58.1211 16.8771 57.6397 16.7426 57.0984 16.6038C56.5131 16.4576 55.9498 16.3319 55.3763 16.2164C54.3397 15.999 53.2701 15.9915 52.2306 16.1945C51.8078 16.2717 51.4011 16.42 51.0279 16.633C50.7242 16.8094 50.4673 17.056 50.2788 17.3522C50.0947 17.6777 50.0069 18.0487 50.0257 18.4222C49.9819 19.0677 50.1919 19.7048 50.611 20.1981C51.16 20.7746 51.8032 21.2536 52.513 21.6146C53.4058 22.0817 54.323 22.5009 55.2607 22.8702C56.3178 23.2908 57.3341 23.8075 58.2966 24.4138C59.2786 25.036 60.127 25.8468 60.7927 26.7993C61.5445 27.9506 61.9202 29.3066 61.8681 30.6802C61.8964 31.8102 61.6118 32.926 61.0458 33.9048C60.5178 34.7731 59.7938 35.506 58.9316 36.0448C58.0709 36.5803 57.1217 36.9584 56.1283 37.1615C55.1543 37.368 54.1613 37.4738 53.1655 37.4743Z" fill="#151515"></path><path d="M74.2311 37.4743C73.1 37.5082 71.9753 37.2937 70.9362 36.8458C70.0561 36.4485 69.2983 35.8232 68.7416 35.0347C68.2054 34.2358 67.8393 33.3352 67.6662 32.389C67.4703 31.3717 67.3752 30.3377 67.3823 29.3018V17.1899H65.1876C64.9182 17.1917 64.6576 17.0938 64.4561 16.9151L64.0274 16.5351C63.912 16.4324 63.8196 16.3066 63.7563 16.1658C63.693 16.0249 63.6603 15.8723 63.6602 15.718V14.6714C63.6601 14.3835 63.7736 14.1072 63.9762 13.9025L64.3537 13.521C64.4555 13.4187 64.5765 13.3374 64.7098 13.282C64.8432 13.2266 64.9862 13.198 65.1306 13.1979H67.3735C67.4072 12.4349 67.4291 11.6748 67.4394 10.925C67.4569 9.7965 67.4789 8.67535 67.5125 7.56298C67.5216 7.2882 67.6345 7.02707 67.8285 6.83211L68.2075 6.44915C68.3092 6.34675 68.4303 6.26549 68.5636 6.21005C68.697 6.1546 68.84 6.12606 68.9844 6.12609H69.9339C70.2035 6.12502 70.464 6.22341 70.6655 6.40238L71.0957 6.78534C71.2106 6.888 71.3025 7.01369 71.3655 7.15423C71.4286 7.29476 71.4612 7.44699 71.4614 7.60098V13.2052H78.4141C78.6835 13.2038 78.944 13.3016 79.1457 13.4801L79.5759 13.863C79.6915 13.9652 79.784 14.0908 79.8473 14.2314C79.9106 14.372 79.9432 14.5245 79.9431 14.6787V15.7253C79.9432 15.8691 79.915 16.0115 79.86 16.1445C79.805 16.2774 79.7244 16.3982 79.6227 16.5L79.2408 16.8786C79.0357 17.0828 78.7579 17.1975 78.4683 17.1972H71.479V29.3091C71.4791 29.893 71.528 30.4758 71.6253 31.0515C71.7024 31.5363 71.8618 32.0045 72.0965 32.4358C72.2937 32.8111 72.5971 33.1201 72.9688 33.3244C73.3406 33.5287 73.7643 33.6192 74.1872 33.5847C74.6648 33.5877 75.1401 33.5172 75.5962 33.3756C76.0604 33.2319 76.5149 33.0586 76.9569 32.8567C77.3958 32.6506 77.7543 32.4723 78.0337 32.3203C78.3908 32.0872 78.802 31.9498 79.2276 31.9212C79.5266 31.9238 79.8164 32.0245 80.0525 32.2078C80.2886 32.3911 80.4579 32.6469 80.5342 32.9357C80.6073 33.1738 80.6562 33.4186 80.6805 33.6665C80.6996 33.9205 80.6996 34.1756 80.6805 34.4296C80.6644 34.5947 80.6585 34.7 80.6585 34.776C80.6582 34.9939 80.5924 35.2067 80.4698 35.387L80.2796 35.6691C80.196 35.7925 80.0879 35.8975 79.9621 35.9775C79.0884 36.5176 78.1282 36.9038 77.1237 37.1191C76.1793 37.3464 75.2126 37.4675 74.2413 37.4802L74.2311 37.4743Z" fill="#151515"></path><path d="M89.7786 37.4743C88.7289 37.5102 87.6827 37.3345 86.7024 36.9578C85.7221 36.5811 84.8277 36.0111 84.0725 35.2817C83.3309 34.5343 82.7507 33.6426 82.3679 32.662C81.9851 31.6814 81.8079 30.6328 81.8472 29.581C81.8062 28.2951 82.1006 27.0207 82.7016 25.8828C83.2485 24.9089 84.0156 24.076 84.9416 23.4505C85.871 22.8276 86.8996 22.367 87.9834 22.0882C89.0723 21.7993 90.1839 21.6037 91.3061 21.5035C93.0156 21.3724 94.7307 21.3305 96.4446 21.3778V19.9424C96.5226 19.4011 96.4687 18.849 96.2876 18.3329C96.1066 17.8169 95.8035 17.3521 95.4043 16.978C94.3359 16.3611 93.1101 16.0704 91.8782 16.1419C91.1066 16.1415 90.3392 16.2537 89.6002 16.4751C88.8873 16.685 88.19 16.9448 87.5137 17.2528C86.8934 17.5451 86.3813 17.8039 85.9892 18.0333C85.2913 18.4456 85.0367 18.5639 84.6988 18.5639C84.3967 18.5638 84.1032 18.4632 83.8647 18.2779C83.6263 18.0926 83.4564 17.8332 83.382 17.5407C83.3076 17.2845 83.2624 17.0207 83.2473 16.7543C83.2268 16.4892 83.2268 16.2228 83.2473 15.9577C83.2605 15.8042 83.2678 15.6975 83.2678 15.623C83.2675 15.4746 83.2978 15.3278 83.3571 15.1917L83.5034 14.8585C83.5869 14.664 83.7251 14.4979 83.9013 14.3805C84.4788 14.0008 85.093 13.6801 85.7346 13.423C86.4034 13.1491 87.0921 12.9263 87.7947 12.7565C88.4782 12.5894 89.171 12.4625 89.8694 12.3764C90.5202 12.2949 91.1754 12.2529 91.8314 12.2507C92.9872 12.2403 94.1411 12.3426 95.277 12.5562C96.3163 12.7446 97.2968 13.1748 98.1389 13.8119C98.9532 14.4592 99.585 15.3069 99.9721 16.272C100.411 17.4451 100.617 18.6921 100.581 19.9438V35.7173C100.581 35.8614 100.552 36.004 100.497 36.137C100.441 36.2699 100.36 36.3906 100.257 36.492L99.8755 36.8721C99.6706 37.0755 99.3933 37.1895 99.1045 37.1893H98.0598C97.7709 37.1895 97.4937 37.0755 97.2888 36.8721L96.9054 36.492C96.705 36.2927 96.5901 36.0232 96.585 35.7407L96.5616 34.6898C96.1051 35.161 95.6022 35.5851 95.0605 35.9556C93.4988 36.9895 91.6575 37.5205 89.7845 37.4773L89.7786 37.4743ZM93.5345 25.1213C92.5883 25.1213 91.6432 25.1818 90.7048 25.3025C89.886 25.3968 89.0899 25.6327 88.3521 25.9998C87.7108 26.3181 87.1581 26.7895 86.7427 27.3723C86.3173 28.0297 86.1123 28.8053 86.1574 29.5868C86.1557 30.1146 86.2469 30.6386 86.4267 31.1348C86.5846 31.5991 86.8333 32.0274 87.1582 32.3948C87.4827 32.7583 87.8741 33.056 88.3112 33.2719C88.7514 33.4843 89.2357 33.5899 89.7245 33.5803C90.5884 33.6002 91.4455 33.4239 92.2312 33.0646C93.0169 32.7053 93.7107 32.1724 94.2602 31.5061C94.8286 30.8183 95.283 30.044 95.6062 29.2126C95.9468 28.3425 96.1625 27.4287 96.2471 26.4982C96.2763 26.1196 96.2997 25.725 96.3129 25.3288L96.3202 25.149C96.0378 25.1373 95.7569 25.13 95.4818 25.13L93.5345 25.1213Z" fill="#151515"></path><path d="M118.072 4.03143C117.555 3.5969 116.946 3.28726 116.29 3.12661C115.647 2.94719 114.984 2.85236 114.316 2.84451C113.508 2.8165 112.703 2.96983 111.962 3.29325C111.368 3.57472 110.86 4.00914 110.49 4.55181C110.113 5.12148 109.848 5.75806 109.71 6.42719C109.544 7.19996 109.464 7.98876 109.472 8.77912V14.2884H117.463L117.888 14.6699V15.7165L117.512 16.0965H109.52V35.7144L109.14 36.0944H107.953L107.57 35.7144V16.0965H104.663L104.238 15.7165V14.6699L104.617 14.2884H107.564C107.564 12.8325 107.541 11.3284 107.495 9.77601C107.435 8.34457 107.587 6.91208 107.947 5.52532C108.256 4.30294 108.926 3.20201 109.871 2.36651C111.141 1.43987 112.703 1.00141 114.271 1.13137C114.987 1.13678 115.703 1.19247 116.411 1.298C117.121 1.38236 117.813 1.57975 118.46 1.88268L118.698 2.21743V3.78294L118.079 4.02411L118.072 4.03143Z" fill="#151515"></path><path d="M132.57 35.4776C132.054 35.8093 131.482 36.0437 130.882 36.169C130.28 36.3026 129.666 36.3731 129.05 36.3795C127.641 36.462 126.247 36.0596 125.099 35.2394C124.148 34.4791 123.417 33.4783 122.982 32.3408C122.505 31.0924 122.216 29.78 122.126 28.4467C122.016 27.022 121.961 25.6577 121.961 24.3539V0.37712L122.293 0H123.528L123.908 0.37712C123.908 4.40175 123.901 8.40105 123.886 12.375C123.872 16.349 123.864 20.3468 123.863 24.3685C123.863 25.2879 123.892 26.3389 123.958 27.5273C124.014 28.6699 124.205 29.8018 124.527 30.8995C124.812 31.9036 125.335 32.8245 126.05 33.5847C126.446 33.9643 126.917 34.2574 127.433 34.4451C127.949 34.6329 128.498 34.7112 129.045 34.6751C129.535 34.6863 130.023 34.6232 130.494 34.488C130.84 34.3857 131.169 34.2336 131.471 34.0364C131.726 33.861 131.928 33.7104 132.089 33.5847C132.18 33.4912 132.296 33.4254 132.424 33.3947C132.677 33.4882 132.794 33.744 132.778 34.1533C132.762 34.5626 132.753 34.8973 132.753 35.1502L132.566 35.4849L132.57 35.4776Z" fill="#151515"></path><path d="M154.074 29.3968C153.687 30.741 153.033 31.993 152.149 33.0774C151.265 34.1272 150.15 34.9574 148.89 35.5024C147.424 36.1171 145.845 36.4159 144.255 36.3795C142.658 36.4142 141.07 36.1155 139.595 35.5024C138.317 34.9546 137.179 34.1257 136.266 33.0774C135.355 32.004 134.682 30.7495 134.293 29.3968C133.853 27.8844 133.637 26.316 133.652 24.7412C133.631 23.1302 133.831 21.524 134.246 19.9672C134.598 18.6406 135.24 17.4083 136.125 16.3582C137.014 15.3347 138.14 14.543 139.405 14.0516C142.517 12.9788 145.898 12.9788 149.01 14.0516C150.27 14.5394 151.39 15.3319 152.268 16.3582C153.143 17.4216 153.775 18.6619 154.122 19.9935C154.535 21.5419 154.734 23.1391 154.716 24.7412C154.731 26.316 154.515 27.8844 154.075 29.3968H154.074ZM152.29 20.8706C152.003 19.7439 151.494 18.6859 150.792 17.7585C150.099 16.862 149.194 16.1514 148.159 15.6902C146.926 15.1718 145.597 14.9227 144.261 14.9593C142.916 14.9243 141.58 15.1734 140.338 15.6902C139.291 16.1468 138.369 16.8487 137.651 17.7366C136.928 18.6567 136.403 19.7156 136.108 20.8472C135.765 22.1169 135.596 23.4274 135.607 24.7427C135.6 26.0279 135.777 27.3075 136.13 28.5432C136.451 29.689 136.991 30.7614 137.722 31.7005C138.445 32.612 139.363 33.3502 140.409 33.8609C141.606 34.3938 142.902 34.6692 144.213 34.6692C145.523 34.6692 146.819 34.3938 148.017 33.8609C149.058 33.354 149.969 32.6149 150.68 31.7005C151.397 30.7594 151.922 29.6866 152.225 28.5432C152.563 27.3048 152.731 26.0263 152.725 24.7427H152.77C152.782 23.4373 152.623 22.1361 152.296 20.872L152.29 20.8706Z" fill="#151515"></path><path d="M168.65 15.6215C168.316 15.4905 167.961 15.4183 167.603 15.4081C167.222 15.392 166.891 15.3818 166.603 15.3818C165.764 15.3798 164.932 15.5407 164.154 15.8554C163.4 16.1584 162.706 16.5935 162.106 17.1402C161.515 17.6826 161.038 18.3363 160.703 19.0639C160.348 19.8304 160.169 20.6664 160.179 21.5108V35.7144L159.797 36.0945H158.562L158.182 35.7144V13.9566L158.514 13.5765H159.752L160.132 13.9566V17.0437C160.944 15.9107 162.01 14.9836 163.245 14.3366C164.472 13.7031 165.835 13.377 167.216 13.3865H168.025C168.281 13.3875 168.536 13.4194 168.785 13.4815L169.12 13.8616V15.2882L168.644 15.6215H168.65Z" fill="#151515"></path><path d="M187.767 24.5029C185.035 24.6004 182.325 24.6866 179.635 24.7616C176.944 24.8367 174.235 24.8776 171.506 24.8844C171.493 26.1898 171.652 27.4912 171.98 28.7551C172.262 29.8715 172.763 30.9208 173.454 31.8423C174.134 32.7248 175.014 33.4336 176.021 33.9106C177.216 34.4458 178.516 34.7042 179.825 34.6663C180.668 34.6681 181.507 34.557 182.321 34.336C183.072 34.1359 183.812 33.8918 184.535 33.6051C185.197 33.3361 185.747 33.0906 186.175 32.8742C186.405 32.7362 186.65 32.6253 186.906 32.5439C187.032 32.5439 187.12 32.6214 187.167 32.7792C187.217 32.9497 187.248 33.1252 187.26 33.3025C187.278 33.4912 187.278 33.681 187.26 33.8697C187.246 34.0646 187.238 34.2083 187.238 34.3009L187.048 34.6327C186.527 34.9384 185.979 35.1939 185.409 35.3957C184.795 35.6136 184.168 35.7952 183.532 35.9395C182.896 36.0857 182.264 36.1909 181.63 36.2713C181.032 36.3492 180.429 36.3892 179.825 36.3912C178.139 36.445 176.461 36.1375 174.904 35.4893C173.65 34.9378 172.56 34.0705 171.741 32.9722C170.912 31.8119 170.329 30.4941 170.029 29.1C169.665 27.4541 169.49 25.772 169.507 24.0863C169.49 22.6029 169.716 21.1268 170.174 19.7158C170.578 18.453 171.241 17.2888 172.123 16.2982C173.006 15.327 174.094 14.5641 175.308 14.0647C176.697 13.5051 178.185 13.2311 179.683 13.2593C181.108 13.209 182.524 13.5192 183.797 14.1612C184.857 14.7296 185.75 15.5644 186.388 16.5833C187.043 17.6493 187.502 18.8234 187.745 20.0505C188.018 21.3975 188.153 22.7689 188.148 24.1433L187.768 24.5219L187.767 24.5029ZM185.699 19.9204C185.446 19.0203 185.044 18.169 184.51 17.4018C183.991 16.6624 183.308 16.053 182.514 15.6215C181.643 15.1625 180.669 14.9336 179.684 14.9564C178.553 14.9426 177.43 15.1523 176.379 15.5732C175.42 15.9593 174.547 16.5317 173.811 17.2571C173.083 17.9963 172.516 18.8789 172.148 19.8488C171.744 20.8957 171.527 22.0055 171.507 23.1274H172.884C175.103 23.1274 177.315 23.104 179.519 23.0573C181.723 23.0105 183.935 22.9067 186.153 22.7459C186.117 21.7892 185.964 20.8404 185.699 19.9204Z" fill="#151515"></path><path d="M203.887 33.3405C203.449 34.0634 202.847 34.6736 202.131 35.1224C201.379 35.5905 200.55 35.9203 199.682 36.0959C198.783 36.2889 197.866 36.3869 196.946 36.3883C195.927 36.3792 194.91 36.2912 193.904 36.1251C192.894 35.9804 191.906 35.7179 190.957 35.3431L190.719 35.0581V33.4897C190.719 33.2353 190.831 33.1096 191.052 33.1096C191.654 33.3328 192.161 33.5394 192.574 33.7294C192.985 33.9194 193.389 34.0816 193.785 34.2264C194.218 34.3781 194.664 34.4896 195.117 34.5596C195.755 34.6484 196.398 34.6875 197.042 34.6766C197.698 34.6748 198.352 34.6033 198.993 34.4632C199.63 34.3332 200.241 34.1002 200.803 33.7732C201.333 33.4659 201.781 33.0345 202.108 32.5161C202.456 31.9365 202.63 31.2685 202.608 30.5925C202.65 29.6935 202.334 28.8144 201.73 28.147C201.094 27.495 200.352 26.9557 199.535 26.5523C198.607 26.0847 197.654 25.6652 196.682 25.2952C195.683 24.9151 194.727 24.43 193.831 23.8481C192.969 23.2908 192.224 22.572 191.636 21.7315C191.009 20.7489 190.703 19.5963 190.758 18.4324C190.729 17.5864 190.932 16.7486 191.343 16.0088C191.728 15.3601 192.259 14.8097 192.893 14.4009C193.554 13.9796 194.287 13.6824 195.055 13.5239C195.861 13.3528 196.681 13.2671 197.505 13.2681C198.513 13.2688 199.521 13.3323 200.522 13.4581C201.529 13.5785 202.524 13.7844 203.496 14.0735L203.78 14.4068V15.7852C203.774 15.8685 203.749 15.9493 203.708 16.022C203.66 16.1185 203.606 16.1682 203.543 16.1682C203.226 16.1443 202.914 16.0805 202.614 15.9781C202.185 15.8524 201.695 15.7165 201.142 15.5732C200.589 15.43 199.993 15.2999 199.358 15.1727C198.748 15.0488 198.127 14.9852 197.505 14.9827C196.93 14.9824 196.356 15.0377 195.791 15.1479C195.248 15.2484 194.726 15.4407 194.248 15.7165C193.795 15.9792 193.411 16.3466 193.13 16.7879C192.829 17.2888 192.68 17.8662 192.701 18.4499C192.656 19.371 192.971 20.2737 193.579 20.967C194.209 21.6346 194.949 22.1894 195.766 22.6071C196.694 23.0919 197.647 23.5276 198.621 23.9124C199.615 24.3071 200.57 24.793 201.474 25.3639C202.336 25.9069 203.079 26.6178 203.66 27.4542C204.284 28.4218 204.591 29.5596 204.538 30.7094C204.567 31.64 204.337 32.5604 203.874 33.3683L203.887 33.3405Z" fill="#151515"></path></svg>